<?xml version="1.0" encoding="UTF-8"?>
<svg viewBox="0 0 568.81116 551.54913" xmlns="http://www.w3.org/2000/svg" xmlns:xlink="http://www.w3.org/1999/xlink">
 <g transform="translate(-80.18 -99.094)" stroke="#000">
  <path d="m595.28 109.98 0.03158 8.2782c0.01088 13.496 0.5217 16.098 4.3263 21.233 3.7216 5.0229 4.3613 7.293 2.1158 7.6146-1.0083 0.14444-2.5176-0.71229-4.8631-2.7173-1.8744-1.6023-3.7712-2.9068-4.2-2.9068-1.0596 0-12.585 11.345-13.705 13.491-0.49352 0.94543-0.88422 2.6233-0.8842 3.7283 0 1.632-0.86367 2.9266-4.6105 6.7931-5.5194 5.6957-13.318 11.699-26.463 20.474-5.3563 3.5759-10.829 7.5226-12.189 8.7521-5.725 5.175-4.9133 9.7401 4.4842 24.866l3.8842 6.256-0.53684 4.771c-1.4278 13.059-0.52299 17.238 6.7894 31.817 5.5755 11.116 6.9521 18.615 5.621 30.364-0.98423 8.6867-0.96803 10.7 0.06316 11.943 1.0484 1.2639 5.0868 1.2898 8.021 0.06319 1.8177-0.7599 2.2105-1.2494 2.2105-2.812 0-1.0432 0.41828-2.3459 0.94737-2.8752 1.3569-1.3576 6.2026-1.9442 9.3789-1.1374 3.2438 0.82381 4.6252 0.12741 7.5473-3.8863 7.9931-10.979 14.73-29.529 24.031-66.162 4.4269-17.435 5.4917-20.602 7.7368-23.097 2.1334-2.3705 3.8653-9.1296 4.4842-17.473 0.32574-4.3908 0.90985-10.703 1.2947-14.029 1.1371-9.8256 1.5856-8.606-6.7578-18.989-1.7489-2.1764-2.1053-2.993-1.6105-3.9179 0.87308-1.6322 2.9771-1.0203 5.9052 1.7694l2.3684 2.2749v-10.111l-2.0526-1.0111c-1.4652-0.72274-2.0526-1.4651-2.0526-2.5593 0-1.3192 0.26969-1.5259 2.1158-1.5166h2.1474l-0.34737-3.8547c-0.42282-4.53-1.7397-8.6758-4.3894-13.965-2.2794-4.5501-6.3322-11.263-6.6315-10.964-0.11675 0.11683 0.20679 2.6405 0.72631 5.5925 0.5238 2.9769 0.78173 6.6634 0.56841 8.2782-0.30271 2.2904-0.06939 3.5676 1.1053 6.0348 1.2432 2.6114 1.5111 4.1708 1.5158 9.2576 0.00547 6.0568-0.78291 8.5858-2.4631 8.0254-0.36939-0.12318-1.0357-2.7683-1.4842-5.8769-0.81932-5.6786-1.0261-6.1987-10.453-26.098-0.66338-1.4004-1.7736-3.2638-2.4631-4.1391l-1.2632-1.5798zm-74.557 2.8752c-8.8704 0.09864-17.276 0.68564-21.726 1.7378-22.468 5.3124-47.513 19.607-53.558 30.68-7.9901 14.637-17.815 31.482-22.168 49.858-8.6898 21.45-11.593 29.642-20.021 50.143-5.7266 10.255-19.466 26.303-24.126 31.501-7.0797 7.8962-28.131 10.636-40.231 13.112-13.987 2.8622-25.784 7.9117-44.873 7.2039-8.6689-2.5972-32.16-6.193-44.937-5.8453-26.91 0.73229-52.231 15.505-68.463 31.596-16.939 16.792-9.2151 38.953-7.8947 68.247 0.65537 14.539 0.32317 21.348-1.421 29.511-1.2479 5.8397-2.9797 17.683-3.821 26.319s-2.056 16.982-2.7158 18.547c-4.6746 11.089-8.0121 17.077-11.242 20.158-4.9445 4.7172-17.87 13.551-25.516 17.441-4.9955 2.5417-6.8829 4.7081-10.168 11.659-2.2588 4.7788-4.4534 12.422-4.9894 17.346-0.52718 4.8428-1.8051 11.768-2.8421 15.387-2.8451 9.9291-12.216 28.278-14.431 28.278-2.3545 0-2.4176-0.7342-0.41052-4.4866 0.84543-1.5806 1.2483-3.1744 0.8842-3.5388-0.92174-0.92224-12.379 15.423-12.379 17.662 0 1.0028 1.3603 5.8135 3 10.679 3.3233 9.8623 2.983 19.018-0.82105 21.801-1.7702 1.2951-1.8981 1.8619-0.47368 2.4329 1.019 0.40851 5.3081 0.79137 9.5052 0.8531 8.4462 0.12431 8.1655 0.86842 3.8842-10.774-3.8554-10.484 0.28904-28.316 12.095-51.975 6.1189-12.263 8.8115-15.712 24.347-31.406 17.965-18.149 20.526-19.893 40.263-27.236 5.5151-2.0516 13.481-5.9593 17.716-8.6889s9.3236-4.9644 11.305-4.9922c4.492-0.06285 7.9336-1.9995 16.547-9.226 14.741-12.367 37.705-39.459 41.4-48.847 5.0427-12.814 11.136-23.706 13.484-24.139 2.0904-0.38581 2.1824 0.15839 0.8842 4.2655-0.81893 2.5908-2.384 6.531-3.4737 8.7521s-1.6218 4.5937-1.2 5.2765 7.858 3.5504 16.516 6.3508c26.784 8.6635 64.04 10.107 90.789 3.5388 1.6426-0.40335 3.1216-0.78041 4.4526-1.1374 8.2717 0.26569 16.282-6.6529 23.116-9.1628 5.2854-1.8682 8.9671-2.6781 15.916-5.6557 8.6074-3.3759 10.957-5.1617 14.305-7.6462l16.074-17.599c4.184 3.3989 7.2683 5.624 8.1157 5.6241 0.89391 7e-5 2.0078-1.0371 2.4947-2.3065 0.71636-1.8678 2.2399-1.0564 7.9263 4.2655 8.3639 7.8277 10.503 8.0704 26.337 2.812 14.16-4.7025 19.926-8.3072 33.41-20.79 28.892-26.746 38.979-27.199 38.716-1.7694-0.10028 9.6836-3.4798 22.054-6.0315 22.054-0.63502 0-1.6086 2.1015-2.1474 4.6446s-2.6416 6.838-4.6736 9.542c-2.5064 3.3353-4.008 7.59-4.6737 13.239-1.2893 10.941-4.3127 14.398-11.558 13.239-2.9434-0.47092-5.3684-0.2633-5.3684 0.44234s2.8929 5.2033 6.4105 9.9843 7.0479 8.6889 7.8315 8.6889 1.421-1.7965 1.421-3.9811c0-3.7117 12.495-26.098 15.663-28.057 0.76309-0.47186 1.3895-4.532 1.3895-9.0049 0-9.5846 5.8525-43.747 9.8526-57.568 1.5419-5.3276 2.394-10.778 1.9263-12.101-1.4326-4.0533-4.9785-7.3934-7.8631-7.3935-1.5654 0-2.4581-0.7541-2.1158-1.7694 0.35825-1.0627 3.1041-1.7676 6.8526-1.7694 3.6784-0.00174 7.7278-1.0379 9.7894-2.4961 3.871-2.7381 10.949-3.2368 14.274-1.0111 1.8481 1.2373 1.7647 1.7011-0.6 3.5072-2.6325 2.0105-2.6603 2.1656-0.18947 4.8974 2.0922 2.3131 2.3884 4.2339 1.6105 10.363-1.3602 10.718-3.2476 16.007-10.263 28.436-4.511 7.9919-6.221 12.547-6.221 16.777 0 6.44-2.8326 13.04-6.8526 15.893-1.5136 1.074-2.9666 4.3503-3.4105 7.7094-0.42783 3.2368-2.6933 8.4829-5.0842 11.785l-4.2947 5.94 4.1368 4.5498c2.2793 2.4969 4.1368 5.016 4.1368 5.6241 0 6.7633 9.1656-12.814 10.737-22.939 0.53889-3.4729 3.9642-11.43 7.6736-17.789 6.6045-11.322 6.7432-11.78 8.4315-29.985 1.7596-18.973 3.1118-25.995 8.7473-45.182 3.8294-13.038 2.8668-17.077-4.9579-20.348-8.4216-3.5207-12.843-2.639-23.937 4.8658-5.6433 3.8175-12.18 7.9174-14.526 9.0996-4.7146 2.3757-28.681 10.995-30.568 10.995-0.65557 0-1.5016-4.3234-1.8947-9.6052s-1.3787-16.302-2.1789-24.518-1.4718-16.492-1.5158-18.389l-3.6316-25.214c-0.00951-9.6016-0.6026-15.991-2.0842-22.876-5.2644-24.461-5.5751-29.965-2.5895-43.508 1.263-5.7286 2.4966-8.0874 8.021-15.166 3.5972-4.6093 8.1936-9.8332 10.2-11.596 4.6373-4.0738 15.382-9.5221 17.305-8.7837 2.1584 0.82872 0.98221 2.064-6.5684 6.9511-3.9938 2.585-8.286 6.4288-10.389 9.3208-3.6952 5.0805-7.2357 11.446-6.6631 11.943 0.17904 0.15548 7.9989-5.6708 17.4-12.954 12.221-9.4685 17.389-14.111 18.126-16.24 0.56738-1.6379 5.4634-7.2702 10.863-12.512 6.9074-6.7055 9.7106-10.125 9.5052-11.533-0.73036-5.0058-29.944-18.639-44.526-20.79-6.3197-0.93238-15.635-1.3309-24.505-1.2322zm-251.46 312.11-3.2526 7.3935c-1.8411 4.1741-7.1374 11.419-12.189 16.683-4.9154 5.1214-10.092 11.239-11.495 13.586-2.3227 3.887-7.4632 8.6003-23.684 21.675-3.1286 2.5218-8.3617 5.2816-11.653 6.1612s-9.8404 4.1182-14.526 7.1723-9.1675 5.5293-9.9789 5.5293c-1.7748 0-5.6252 21.189-5.3052 29.195 0.24686 6.1773-7.036 31.778-10.579 37.188-2.7982 4.2729-5.3522 4.3784-4.0737 0.15798 2.5014-8.2567 2.1624-8.3887-2.9052-1.0743-5.9324 8.5628-6.6145 13.372-3.3789 23.539 2.217 6.9667 0.89874 13.467-2.9368 14.471-1.5285 0.39994-2.7789 1.2993-2.7789 1.9906s4.2118 1.2638 9.3789 1.2638c8.4632 0 9.2756-0.25322 8.1789-2.4961-2.8343-5.7964-1.2752-22.21 3.6316-38.073 6.7734-21.899 11.329-31.309 20.179-41.77 9.0701-10.722 16.736-15.882 40.105-26.983 14.356-6.8194 19.355-10.092 28.831-18.831 6.3093-5.8185 15.995-14.55 21.505-19.4 9.6145-8.4637 19.52-21.057 18.221-23.16-0.34132-0.55256-4.7103-2.094-9.6947-3.444s-11.867-4.3195-15.316-6.6036l-6.2842-4.1707z" stroke-width="2.8446"/>
  <path d="m490.66 99.594c-3.342-1.9e-4 -0.26684 2.2321 7.625 4.9688 9.5639 3.3164 11.204 4.5145 9.125 6.5938-0.85203 0.85203-1.5838 0.80127-2.1562-0.125-0.47229-0.76416-2.5265-1.375-4.5938-1.375-4.5189 0-5.059 2.8097-0.90625 4.8125 2.6009 1.2544 2.656 1.3905 0.40625 1.4688-1.3681 0.04758-4.7399-1.4623-7.5-3.375-4.9085-3.4016-5.4164-3.4837-22.281-3.25-17.775 0.2463-23.404-0.87788-28.719-5.6875-2.6455-2.3942-3.9796-1.7167-2.7812 1.4062 0.99061 2.5815 7.8274 6.1581 16.125 8.4062 8.3408 2.2599 10 4.5246 4.5625 6.25-14.192 4.5036-34.262 6.2827-45.75 4.0625-6.2251-1.2031-7.6548-0.81107-5.4062 1.4375 2.0677 2.0677 18.658 3.3226 27.719 2.0938 9.8727-1.339 21.903-4.4103 26.719-6.8125 2.0646-1.0299 5.9012-1.875 8.5-1.875s6.6731-0.66989 9.0625-1.4688c5.3066-1.7742 8.4041-4.3984 3.6875-3.125-6.7925 1.8339-11.468 2.3001-14.656 1.5-4.9729-1.2481-2.8518-2.894 5-3.875 5.5713-0.69609 8.183-0.36033 12.812 1.6875 3.1943 1.413 5.8125 3.0888 5.8125 3.7188s-2.4501 1.925-5.4375 2.875-7.3394 2.7062-9.6562 3.9062c-2.7759 1.4378-5.8731 1.9632-9.0938 1.5312-2.9055-0.38971-5.258-0.06533-5.7812 0.78125-0.54824 0.88708 0.25557 1.4161 2.0938 1.4375 2.7469 0.032 2.6325 0.30759-1.5312 3.8125-2.4602 2.071-5.1705 3.7624-6.0312 3.7812s-5.096 3.5012-9.4062 7.7188c-4.391 4.2966-8.9792 7.6562-10.438 7.6562-2.5724 0-12.495 9.1542-16.625 15.344-5.4978 9.7356-7.3783 9.682-10.312 16.375-5.048 9.6064-5.3309 10.469-3.4688 10.469 0.66995 0 2.145-2.0085 3.3125-4.4688 6.027-8.7478 9.0252-13.538 17.312-19.906l3.9688-2.8125-3 5c-1.6525 2.7609-3.7572 6.152-4.6562 7.5312s-1.962 3.5199-2.375 4.75-1.1664 2.2188-1.6875 2.2188c-1.1869 0-10.281 14.592-10.281 16.5 0 2.0037 1.3471 1.7294 4.25-0.84375 2.4638-2.184 2.4674-2.1512 0.84375 0.96875-4.4739 8.5972-12.038 15.599-17.219 15.906-0.70293 0.04163-5.1596 1.9343-9.9062 4.2188s-10.088 4.1562-11.844 4.1562-3.1875 0.64672-3.1875 1.4375c0 2.128 6.9314 0.4201 16.625-4.0938l8.3125-3.8438-4.4688 3.875c-41.361 33.13 8.6267 2.7679 23.875-21 1.7887-3.5146 3.9829-7.2581 4.875-8.3125s5.1419-8.8149 9.4375-17.25 8.9114-17.029 10.281-19.094 2.2363-4.2159 1.9062-4.75 2.7208-4.2884 6.7812-8.375c8.3509-8.4048 26.904-18.766 41.875-23.344 17.542-5.3636 39.474-5.6735 62.656-0.90625 8.5643 1.7612 34.484 15.266 36.531 19.031 0.95136 1.7497-0.75815 4.0779-8.5938 11.812-5.3718 5.3025-10.217 9.625-10.781 9.625h-0.03125c-0.29716 0.36419-0.56638 0.67821-0.8125 1-0.00396 0.00957 0.00394 0.02157 0 0.03125-0.26098 0.64173-0.48255 1.5357-0.59375 2.5-0.31246 2.7095-2.4342 4.8765-9.3125 9.5938-4.8962 3.3579-13.372 9.8572-18.844 14.438s-9.9687 7.7211-9.9688 6.9688c0-3.0966 6.8303-14.487 11.438-19.094 2.7164-2.7164 6.9997-5.6784 9.5312-6.5938s4.5937-2.3901 4.5938-3.2812c0-1.9322-2.0725-1.2556-10.688 3.4688-4.1016 2.2493-9.0071 6.8651-14.344 13.5-4.4607 5.5459-8.1375 10.504-8.1562 11.031s-0.86862 7.4451-3.1875 15.156c-0.34725 8.6815 0.9251 18.602 3.5938 28.312 3.1861 13.178 4.1693 22.164 3.1875 34.875l2.5938 18.062c0.0183 0.78985 0.17339 2.8553 0.375 5.4062 0.25855 0.15432 0.53191 0.31243 0.78125 0.46875 0.68365 0.86544 1.0758 6.1441 0.90625 11.75-0.20426 6.7511 0.28983 11.067 1.4062 12.781 1.1173 1.7154 1.5071 5.3343 1.1562 10.75-0.21511 3.3207-0.24165 6.4628-0.09375 8.125 0.0022 0.02476-0.00228 0.06966 0 0.09375 0.08793 0.42698 0.19087 0.79404 0.28125 1.125 0.46422 0.51149 2.2417 0.20459 4.0625-0.71875 1.8932-0.96005 7.1018-2.6884 11.594-3.8125 8.2306-2.0596 18.536-6.8126 24.438-11.281 16.205-12.27 16.711-12.445 26.062-9.7812 6.4296 1.8316 8.9903 3.9035 11.062 8.9062 1.3686 3.3041 1.2172 4.7762-1.0938 10.469-5.8511 14.413-10.889 42.5-10.719 59.625 0.06423 6.4504-0.5149 7.8839-7.5 18.469-6.755 10.236-7.5938 12.198-7.5938 18 0 3.5791-0.56746 7.0675-1.2812 7.7812s-2.9384 5.199-4.9375 9.9375l-3.6562 8.5938-4.125-6.4688c-4.0364-6.2901-6.4472-8.0882-6.4375-4.8438 0.00518 1.7297 3.4081 7.3356 7.5312 12.438 2.0958 2.5933 3.0071 2.9488 4.8438 1.8125 1.2445-0.77001 2.6019-3.0833 3.0312-5.125s2.3586-6.6941 4.2812-10.344c2.2266-4.2266 3.6303-9.0854 3.875-13.406 0.32382-5.719 1.4383-8.3946 7.125-16.969 6.471-9.7568 9.7607-18.389 8.375-22-0.76924-2.0046 3.7932-38.924 5.5-44.5 0.64554-2.1088 2.1829-6.1258 3.4062-8.9375 6.0161-13.828 4.5174-20.733-5.4375-25.125-3.3699-1.4866-8.7118-2.7678-11.875-2.8438-5.8593-0.14073-9.9903 2.1322-24.406 13.406-5.2601 4.1136-8.4375 5.4867-20.969 9-4.9205 1.3795-9.8804 2.8136-11.031 3.1875-1.8246 0.59286-1.9484-0.05945-1.0312-4.9688 0.64809-3.469 0.50589-7.5596-0.34375-10.656-0.75835-2.764-1.4248-8.6379-1.5-13.062-0.13149-7.7408-0.02759-8.0083 2.75-7.3125 1.5876 0.39769 4.5884-0.14947 6.6562-1.2188 5.0722-2.623 5.1115-2.5863 3.5312 2.5625-1.1913 3.8815-1.0162 4.9702 1.25 7.9688 2.1584 2.8559 3.5825 3.4683 7.9375 3.375 3.2912-0.07054 6.7153-1.1628 9.0312-2.875 2.0546-1.519 4.9256-2.75 6.375-2.75s4.9678-1.5549 7.8125-3.4375c9.1426-6.0503 19.589-32.163 29.188-72.906 2.0673-8.7751 4.6976-16.984 5.8438-18.25 3.2948-3.6407 5.742-13.616 5.9062-24.156 0.08317-5.3359 0.53335-11.422 1-13.531l0.84375-3.8438 2.3438 3.5312c2.7751 4.164 5.7411 12.02 5.875 15.625 0.0903 2.4305 0.16988 2.4529 1.4688 0.21875 2.7203-4.6792-3.2979-20.349-9.4062-24.5-2.4961-1.6961-4.522-5.4444-6.1875-7.2812-2.9384-3.2408-6.1354-5.3847-6.5938-2.875-0.29451 1.6127 5.2915 6.3165 7.0938 8.9688 2.6442 3.8913 2.9738 5.272 1.9688 8.6562-0.65946 2.2205-1.244 8.8395-1.2812 14.688-0.06385 10.04-2.8689 20.514-6.0312 22.469-1.3477 0.83295-3.3193 7.3972-7.3125 24.406-9.5528 40.69-23.091 70.75-30.156 66.969-1.3091-0.70062-4.3193-0.91301-6.6875-0.46875-3.4244 0.64242-4.1594 1.326-3.6562 3.25 0.45796 1.7512-0.33569 2.7771-2.8125 3.7188-7.6186 2.8966-11.25 0.08892-9.5312-7.3125 1.5323-6.5999 1.4697-18.618-0.125-22.812-0.7226-1.9006-1.0242-3.757-0.65625-4.125-8.9135-16.098-11.803-24.092-11.562-28.625-1.1392-7.2226 1.9444-10.349 1.0938-15.219-0.67628-3.8719-16.225-20.562-10.688-29.25 4.5764-7.1798 27.115-16.453 43.75-34.188 5.221-6.7854-6.2612-2.3434 16.531-22.031 0.58145 0 2.4927 1.4302 4.25 3.1875 6.169 6.169 8.0424 3.2395 2.2188-3.4688-4.1012-4.7241-4.1492-5.0332-4.4375-20.562l-0.21875-11.25 2.875 3.5938c1.5799 1.965 3.5132 5.571 4.3125 8.0312s2.9743 7.0556 4.8125 10.219c2.1992 3.7844 3.5483 8.3916 3.9688 13.438 0.37489 4.4987 0.18772 3.9374 0.9375 3.5625 2.0147-1.0074 2.1579-12.598-0.09375-15.812-1.228-1.7533-1.7015-4.2115-1.25-6.4688 0.39938-1.9968 0.03924-6.2728-0.78125-9.5312s-1.2387-6.1676-0.9375-6.4688c0.93972-0.93972 9.2899 12.57 11.344 19.344 3.9987 13.189 0.41567 27.13 1.5625 27.781 3.3157 1.8817 2.8066-11.666 3.9062-14.531 1.4417-3.757-3.1175-18.054-10.312-30.156-3.8656-6.502-7.5501-11.812-8.1875-11.812-1.2979 0-0.85311 15.165 0.625 21.094 1.2382 4.9666-0.9071 2.8368-3.25-3.2188-2.6201-6.772-10.284-17.875-12.344-17.875-1.2927 0-1.567 0.79781-0.9375 2.7812 1.1808 3.7203 0.88038 22.972-0.375 24.188-0.54373 0.52638-4.1652-0.9883-8.0312-3.375-19.267-11.894-24.991-13.532-51.75-14.594-16.804-0.66646-17.875-0.84943-17.875-3.25 0-2.9417-10.938-8.9156-18.875-10.312-1.4754-0.25966-2.5725-0.37496-3.3438-0.375zm36.656 99.5c-0.5493 11.278-0.15522 22.644 11.281 34.844-1.8903 5.9287-2.5246 13.484 2.0938 27.781-5.3648 3.8304-6.9433 9.3318-9.5 16.906-0.03569-9.8049 1.5581-10.271 1.0312-19.812-1.7501-9.8743-2.6907-12.279-4.75-25.156-1.5456-15.213-4.4045-14.316-0.15625-34.562zm16.531 68.25c3.4598 8.5274 7.8679 16.974 3.1875 26.406-6.6969 3.1704-10.21 0.45632-11.281-6.6875-0.27748-8.9462 3.7671-14.456 8.0938-19.719zm-265.44 28.906c-0.67993 0.0416-0.96781 0.18938-0.875 0.5625 1.7676 0.24966 3.5341 0.4757 5.2188 0.75-1.0345-0.77859-2.4304-1.3125-3.5312-1.3125-0.30679 0-0.58586-0.01387-0.8125 0zm314.47 41.438c-1.5148 0.0501-3.0684 1.0187-5.4688 3.2188l-6.125 3.8438c-1.5254-1.4054-3.2066-2.3545-4.75-2.75-1.6008 0.06782-2.9523 0.28047-3.9375 0.59375-0.14402 0.12192-0.28105 0.25539-0.40625 0.40625-1.5007 1.8082-0.43092 2.4173 3.5 1.9375 2.4068-0.29375 6.8125 6.292 6.8125 10.188 0 1.9809-0.64705 5.2214-1.4375 7.1875s-1.864 4.7191-2.4062 6.125c-1.087 2.8178-5.5284 26.6-7.75 41.438-0.78002 5.2095-1.0764 11.623-0.65625 14.25 0.65863 4.1188 0.19525 5.3475-3.1875 8.9688-2.1578 2.3099-5.0857 6.5489-6.5312 9.4062s-3.7261 6.7277-5.0625 8.625c-1.4749 2.0938-2.1703 4.6213-1.75 6.4062 0.87459 3.7143-1.0117 6.7408-3.5938 5.75-2.7211-1.0442-13.392-14.873-13.969-18.094-0.42486-2.3717-0.56361-2.3985-1.4688-0.375-1.6948 3.7888 0.17066 7.7856 7.4062 15.781l6.9375 7.6562-2.5 3.1562c-1.3877 1.7212-3.8949 5.9854-5.5625 9.5-1.6864 3.5542-3.084 5.3392-3.125 4-0.0405-1.3243-2.3758-6.9193-5.1875-12.438-5.5935-10.978-6.4783-17.761-3.1875-24.125 2.9299-5.6658 6.4949-7.6539 11.281-6.2812 6.6142 1.8969 7.7789 1.4006 10.469-4.4062 1.9448-4.1984 2.3064-6.4853 1.4688-9.4062-0.91389-3.1865-0.51379-4.791 2.375-9.1562 1.9247-2.9084 3.954-5.2813 4.5-5.2812s1.67-4.017 2.5-8.9375 1.9581-8.9375 2.5-8.9375 0.71711 1.567 0.375 3.5c-1.014 5.7301 1.661 1.713 3.625-5.4375 2.3195-8.4446 2.2865-21.041-0.0625-25.688-1.0311-2.0395-1.9127-3.7876-1.9375-3.9062s-1.5132-0.60306-3.3438-1.0625c-0.91439-0.2295-1.7981-0.27977-2.5938-0.1875-0.51816 0.11772-1.0627 0.24368-1.625 0.4375-0.34333 0.1719-0.6431 0.40021-0.90625 0.65625-0.97971 0.95322-4.6416 3.402-8.1562 5.4375s-9.5714 7.101-13.438 11.281c-12.774 13.812-22.91 20.38-37.062 23.938-2.4686 0.62046-6.57 1.9768-9.0938 3.0312-6.7102 2.8037-13.057 0.556-18.219-6.4688-4.2984-5.85-6.6078-7.1166-5.5312-3 1.1577 4.4271-4.7194 2.7513-11.156-3.1875-0.36197-0.33397-0.77719-0.68784-1.1562-1.0312l-10.312 11.25c0.78974 0.509 1.5522 0.93181 2.3125 1.2812-8.4779 8.0661-14.279 9.4498-21.688 11.844l-0.0625 0.0625 2.6875 2.8438-4.3438 2.0312c0.5603 0.57737 1.7131 0.55431 3.5-0.71875 8.1306-3.3514 17.267-8.531 23.562-13.719 0.35919-0.35772 0.66181-0.69038 0.9375-1 7.7357 1.0258 14.514-3.68 23.562 1.0625 4.6727 3.564 12.021 4.4554 17.594 2.125 1.6146-0.67528 7.107-2.4384 12.219-3.9062 7.4661-2.144 11.763-4.5275 21.75-12.094 6.8379-5.1803 15.123-12.202 18.406-15.625 7.5248-7.8456 11.929-10.366 14.875-8.4688 2.5331 1.6309 2.5309 1.8475-0.28125 20.875-2.6367 17.841-3.8713 21.925-8.0625 26.906-2.699 3.2076-3.1002 4.6995-2.4375 8.8438 0.43763 2.7368 0.2135 6.4244-0.46875 8.2188-1.1506 3.0263-1.6493 3.2107-7.0625 2.4688-5.018-0.6878-6.2811-0.3774-9.0938 2.25-4.5548 4.2549-7.0652 9.557-7.6875 16.219-0.44061 4.7164 0.44424 7.7818 5.25 18.062 3.1849 6.8133 5.7812 13.072 5.7812 13.906s1.3658 1.5312 3.0312 1.5312c2.4896 0 3.6486-1.4035 6.4688-7.9062 1.8865-4.3499 5.4209-10.606 7.8438-13.906s4.3994-7.0946 4.4062-8.4062c0.02164-4.1343 5.911-15.253 12.094-22.844 5.4054-6.6363 5.9213-7.8617 5.5938-13.188-0.32415-5.2712-0.05686-5.9459 2.6875-6.5938 1.9386-0.45765 3.507-2.1204 4.2812-4.5312 0.67103-2.0894 2.0174-4.7119 3-5.8438 1.3517-1.5569 1.4881-2.9012 0.5-5.5-1.5294-4.0227-0.2681-7.3035 7.5938-19.844 5.95-9.4908 7.5662-14.285 8.5625-25.125 0.63544-6.9138 0.39352-8.0912-2.125-10.438l-2.8438-2.625 2.6875-1.4375c3.2558-1.7425 3.503-3.7852 0.4375-3.5938-1.2301 0.07681-3.497-0.27693-5.0312-0.78125-0.52647-0.17305-1.0263-0.2667-1.5312-0.25zm-170 85.875c-0.88184-0.90872-0.30162-3.3193 1.6562-4.875l-0.09375-0.09375c-6.4963 2.7402-10.11 3.5499-15.188 5.3438-3.2607 1.1969-6.7997 3.4047-10.5 5.3438-0.1907 0.98349-3.2505 2.2418-9.5312 4.0938-18.343 5.4089-26.665 6.3298-52.094 5.6875-19.499-0.49255-25.216-1.0874-32.594-3.375-4.9205-1.5256-12.783-3.9508-17.5-5.375s-9.9216-3.663-11.531-4.9688l-2.9062-2.375 3.0312-3.2188c1.926-2.0536 2.746-4.0322 2.2188-5.4062-0.48299-1.2586 0.06191-3.1806 1.3125-4.5625 1.1842-1.3085 1.7123-2.7896 1.1875-3.3125-0.16023-0.15964-0.32995-0.2353-0.53125-0.25-0.09523 0.01432-0.17582 0.0118-0.28125 0.03125-0.14523 0.02679-0.29572 0.08196-0.46875 0.1875-0.51908 0.31662-1.1787 0.98633-1.9062 1.9375-0.19302 0.26852-0.39256 0.56136-0.59375 0.875-1.6096 2.5091-3.4713 6.4368-5.25 11.281-6.2285 16.964-7.5202 19.148-17.531 29.281-5.4731 5.5398-9.9498 10.759-9.9688 11.625-0.07166 3.2811-10.052 12.773-15 14.281-7.7664 7.3665-1.6502 3.9893-10.312 9.4062-7.6074 5.1519-5.2353 2.7549-10.531 3.1562-0.15261-0.20404-0.42754-0.34598-0.875-0.34375-0.12654 6.3e-4 -0.32225 0.06249-0.5625 0.15625-1.6817 0.65632-6.0996 3.5666-12.469 8.2188-2.4132 1.7626-9.2906 4.6735-15.312 6.5-18.834 5.7124-28.083 12.428-38.312 27.812-0.98306 1.4784-4.4112 4.4225-7.625 6.5312-4.2007 2.7564-7.2642 6.3497-10.906 12.781-7.346 12.972-16.094 33.596-16.094 37.938 0 2.0587-0.65412 6.2639-1.4375 9.375-1.7725 7.0393-0.70596 13.049 3.375 19.062 3.9909 5.881 2.8549 6.4184-11 5.4688-5.5672-0.38158-10.418-0.21284-10.781 0.375-1.2164 1.9681 1.6047 2.5284 13.781 2.6562l12.094 0.125 0.78125 10.375c0.44142 5.7242 0.29566 10.892-0.34375 11.531-0.69412 0.69413-6.1239-0.78695-13.531-3.7188-13.605-5.3847-14.688-6.5897-14.688-16.562 0-4.9562 0.47368-5.8672 3.8125-7.5938 2.0879-1.0797 4.3508-3.0098 5.0312-4.2812 1.8359-3.4304 0.31038-17.049-2.2188-19.844-1.2911-1.4266-2.125-4.5014-2.125-7.7188 0-4.5647 0.91849-6.4721 6.4062-12.969 3.5379-4.1884 8.7258-12.408 11.5-18.25s5.2484-10.005 5.5-9.25c0.51626 1.5488-6.8372 19.818-9.5312 23.688-1.9966 2.8675-2.455 7.0151-0.5625 5.0938 1.6485-1.6736 8.2966-15.221 11.594-23.656 2.4761-6.3343 4.132-16.455 3.9375-23.906-0.04132-1.5828 1.9347-7.1316 4.375-12.344 3.7292-7.9652 5.0862-9.7071 8.625-10.875 5.6895-1.8777 25.677-15.496 29.438-20.062 3.1939-3.8789 7.3125-13.22 7.3125-16.594 0-3.8607-3.0543-0.92277-4.875 4.6875-1.0123 3.1192-3.1998 7.4809-4.8438 9.6875-3.5173 4.7211-15.903 13.517-26.719 18.969-6.8804 3.4676-8.0416 4.6312-11.312 11.5-2.005 4.2104-4.3986 11.358-5.3438 15.875s-4.3303 13.427-7.5 19.812-6.3099 13.062-6.9688 14.844-4.2661 6.9304-8.0312 11.438c-6.2883 7.5275-6.8378 8.7019-6.75 14.438 0.05282 3.45 0.79134 6.6842 1.6562 7.2188 1.966 1.2151 4.9053 11.399 4.2812 14.812-0.25705 1.4058-2.2818 3.6859-4.5 5.0938-7.792 4.9456-7.2947 21.326 0.78125 26.25 2.2488 1.3712 5.2192 2.5261 6.625 2.5625s4.571 1.1415 7.0312 2.4375c6.7446 3.5529 13.461 3.3282 16.844-0.5625 1.528-1.7573 3.8459-3.1875 5.125-3.1875s2.3125-0.57832 2.3125-1.2812-1.4237-1.2813-3.1562-1.2812c-4.1558 0-5.7812-3.3578-5.7812-11.875 0-5.3572-0.75084-8.0689-3.3125-11.844-1.8239-2.6876-3.8798-6.3292-4.5625-8.125-1.6505-4.3412-1.7095-12.515-0.09375-14.5 0.71202-0.87485 1.9063-5.566 2.6562-10.438 1.6987-11.035 12.763-33.897 19.188-39.656 8.7365-7.8321 20.828-20.607 22.562-23.844 1.9897-3.713 15.537-11.306 25.531-14.312 0.98895-0.2975 1.9064-0.61319 2.8125-0.90625-2.1147 6.1834-4.7188 20.146-4.7188 24.844 0 3.8188-3.0026 11.913-10.656 28.844-1.43 3.1632-4.4169 8.1898-6.6562 11.156-5.4624 7.2361-6.7107 14.953-3.1875 19.719 1.4363 1.9427 2.625 5.5249 2.625 7.9375 0 3.8856-0.57361 4.5914-4.875 6.3125-5.1957 2.0789-7.4151 5.5116-8.6875 13.469-0.64301 4.0211-0.17336 5.5064 2.6875 8.9062 1.888 2.2438 4.0088 4.0938 4.7188 4.0938s3.0975 0.82047 5.3125 1.8438 6.8916 3.0077 10.406 4.4062 6.7444 2.5867 7.1562 2.625c1.2852 0.11963 12.656-9.1768 12.656-10.344 0-0.60889-1.7408-1.0938-3.875-1.0938h-3.875l0.21875-8.625c0.16823-6.6661-0.42453-9.7881-2.5312-13.719-3.2501-6.0639-3.634-16.527-0.8125-21.938 1.05-2.0134 1.9332-5.2432 1.9375-7.1875 0.01062-4.7709 8.6649-29.785 12.375-35.75 1.6391-2.6352 4.1412-5.5069 5.5312-6.375s4.3956-2.0917 6.6875-5.1562c6.7955-9.1826 17.303-17.542 33.375-24.688 5.3747-1.6465 17.772-8.2742 21.719-11.594 2.2072-1.8565 8.1546-6.092 10.156-8.8125s3.8235-5.9945 7.0938-7.875c8.7303-5.02 30.385-27.238 31.5-32.312 0.74823-3.4066 1.3689-3.9553 3.6562-3.3438 6.4969 1.7371 52.147 2.4089 59.344 0.875 18.757-3.9978 28.861-7.2237 42.438-13.594l10.344-4.875zm169.22-79.406-0.21875 7.0312c-0.45602 14.112-4.4951 34.94-7.5625 39-4.0314 5.3353-5.8745 10.631-4.5312 13.031 1.546 2.7625-1.0269 10.455-4.0312 12.062-2.287 1.224-2.3809 0.964-1.5938-4.2188 2.7743-18.268 6.4438-35.649 8.5-40.25 1.3037-2.9173 2.7257-8.3958 3.1562-12.156 0.6057-5.2901 0.35106-7.1368-1.5938-10.219l7.875-4.2812zm-417.19 20.219c-1.1308 3.8907-1.9832 7.9131-2.5312 12.031 1.1748 15.985 6.7587 20.046-0.46875 45.625-3.2943 21.701-4.0268 24.127-4.4688 40.219-0.7208 3.6452 1.529 7.1496 1.9688 3.75 1.9197-14.436 1.6354-28.839 5.4062-42.812 4.5382-16.817 2.1472-29.98 0.375-45.375 0.16429-1.4289 0.33994-2.8164 0.5625-4.1875-0.31862-3.1802-0.62021-6.2706-0.84375-9.25zm97.094 60.938c15.116 11.069 18.039 10.143 33.719 14.719-1.8639 9.9686-12.843 18.444-19.781 25.75-4.1728 3.0372-10.202 8.2095-15.219 12.75-6.2479 6.1236-8.3195 10.902-15.156 13.531-2.2636 4.3885-12.455 7.1614-22 12.469-9.8968 3.5485-14.228 5.9523-21.125 10.875-5.0589 2.4751-8.4454 5.2716-11.25 9.3125-2.2068 3.1795-4.7739 6.415-5.7188 7.1875-5.6601 4.6278-7.8678 8.5675-13.438 23.938-3.403 9.3908-6.6616 19.681-7.2188 22.844s-1.6925 8.0043-2.5312 10.75c-0.10864 0.35565-0.22453 0.71523-0.3125 1.0938-0.00379 0.03219-0.0275 0.06161-0.03125 0.09375-0.2748 2.3534-0.44741 4.5829-0.5 6.625 0.00154 0.0409-0.0017 0.08412 0 0.125 0.17015 4.0869 1.1379 8.0894 2.75 10.219 1.0032 1.325 1.8526 2.896 1.875 3.5 0.03477 0.93939-13 0.49299-21.062-0.71875-4.1662-0.62615-4.1662 1.9154 0 3.0312 5.1204 1.3715 15.931 1.6639 19.5 0.53125 2.8044-0.89009 2.875-0.68113 2.875 8.6562 0 5.2618 0.35457 10.482 0.78125 11.594 0.98272 2.5609-1.8034 2.6152-7.4375 0.1875-2.3083-0.99467-7.3839-3.0435-11.25-4.5625-8.7714-3.4463-11.5-6.5212-11.5-12.938 0-5.5136 3.4401-10.062 7.5938-10.062 3.1059 0 6.4688-4.6458 6.4688-8.9375 0-1.787-1.2108-5.4947-2.6875-8.25-3.3876-6.3204-2.6152-12.211 2.4375-18.5 4.5023-5.6038 7.1065-10.491 12.594-23.75 2.3272-5.6234 4.2371-9.5299 4.25-8.6875 0.03315 2.171-6.0764 21.19-8.9688 27.938-1.3346 3.1135-1.913 5.6562-1.3125 5.6562 1.1477 0 6.4688-10.518 6.4688-12.781 0-0.72379 1.4302-5.439 3.1875-10.469 3.3059-9.4623 4.0082-14.545 2.0938-15.281-1.0462-0.40253 1.45-12.975 4.125-24.844 0.41318-1.8332 0.469-3.2849 0.28125-4.3438 6.0708-2.2204 10.133-4.494 13.594-7.5 2.3107-2.0072 5.5122-4.3255 7.0938-5.1562 0.58693-0.30829 1.0693-0.65689 1.5-1.0312-0.10157 0.60457 0.0914 1.046 1.1875 0.90625 8.4868-1.0816 17.41-7.7109 23.344-14.719 6.3966-4.999 11.813-8.0264 14.844-13.875 2.151-5.4968 9.6534-11.509 10-11.594 7.0419-8.1456 11.727-10.439 15.938-26.281z" fill-opacity=".96407"/>
  <path d="m370.82 388.39c11.79-3.9476 20.077-11.301 25.357-17.814 8.2575-10.185 8.8027-20.27 5.2528-31.272-9.5958-23.887-19.385-15.778-34.259-35.045-13.29 15.049-27.651 19.232-47.889 23.02-1.5933 2.7549 3.1152 0.55769-2.7192 4.9899-2.2159 0.73861-1.8398 15.084 0.57966 22.114 6.9958 20.326 17.272 30.687 34.077 34.359 10.894 2.3808 9.6661 2.4029 19.6-0.35186z"/>
  <path d="m414.44 423.24c3.8985-1.8459 7.3416-3.766 7.6512-4.267s-1.8579-2.269-4.8167-3.929c-7.1364-4.0036-7.1902-4.0474-20.29-16.512l-11.362-10.81-4.1176 1.6478c-2.2647 0.90626-5.9867 2.2035-8.2712 2.8827s-4.1536 1.8107-4.1536 2.5144 1.9157 4.2711 4.2572 7.9277c6.0892 9.5094 17.539 19.548 24.85 21.786 8.2881 2.5381 8.269 2.5395 16.253-1.2406z"/>
  <path d="m629.8 210.65c0-1.5178 0.64833-2.2672 1.6342-1.8889 0.89884 0.34491 2.768-0.22997 4.1536-1.2775s1.8322-1.9229 0.99219-1.9453c-0.99531-0.02648-0.41617-2.5529 1.6628-7.2539 5.6388-12.75 5.7113-31.696 0.14294-37.335-8.0512-8.1536-12.965-11.686-16.258-11.686-4.3172 0-7.7657-3.3849-4.6619-4.576 2.8818-1.1058 15.96 5.641 21.255 10.965 2.4744 2.4881 5.5811 7.5818 6.9037 11.319 2.5967 7.3381 2.6197 7.1502-2.9979 24.467-4.1816 12.89-4.2052 14.041-0.11823 5.7512 2.0794-4.2175 3.8091-9.2498 3.8437-11.183s0.649-3.5146 1.3653-3.5146c0.74706 0 0.98878 1.4986 0.56691 3.5146-2.4232 11.579-3.9133 14.953-9.202 20.836-5.983 6.6545-9.2819 8.0075-9.2819 3.8067z" opacity=".88158"/>
  <path d="m637.7 181.28c-0.03829-2.7746-0.68277-6.1904-1.4322-7.5907-1.5531-2.902 0.2167-4.7941 2.2145-2.3675 2.0793 2.5256 2.4241 15.003 0.41465 15.003-0.62005 0-1.1587-2.2702-1.197-5.0448z" opacity=".88158"/>
  <path d="m414.71 151.01c-1.8708-1.8708-0.71942-2.7039 4.7786-3.4575 3.1215-0.42785 9.8357-2.2314 14.92-4.0078 10.55-3.6861 10.077-3.5863 10.077-2.1255 0 0.60742-2.7318 2.0867-6.0707 3.2874s-8.0836 2.9733-10.544 3.9393c-6.0472 2.3744-12.07 3.4562-13.162 2.3642z" opacity=".88158"/>
  <path d="m414.81 144.74c-1.708-1.7471 0.40285-3.1445 4.7498-3.1445 5.3382 0 21.669-3.367 25.014-5.1573 1.396-0.7471 2.4718-0.81148 2.4718-0.14791 0 3.2145-29.734 11.009-32.236 8.4497z" opacity=".88158"/>
  <path d="m410.94 135.84c-1.933-1.0979-3.5146-2.553-3.5146-3.2334 0-1.6506 0.90639-1.5542 7.6682 0.81542 6.0514 2.1207 18.543 1.6131 23.329-0.94795 1.3014-0.69648 3.3425-1.0464 4.5358-0.77752 1.4726 0.33176 0.52717 1.217-2.9426 2.7554-7.1982 3.1915-24.45 4.0151-29.075 1.3881z" opacity=".88158"/>
  <path d="m375.05 219.98c-1.7051-1.7051-0.78492-2.6148 2.0892-2.0654 3.9283 0.75095 17.191-4.0079 20.912-7.5036 1.6366-1.5375 3.3035-2.4676 3.7042-2.067 1.2524 1.2524-4.911 6.273-11.582 9.4345-6.1631 2.9208-13.357 3.968-15.123 2.2014z" opacity=".88158"/>
  <path d="m367.33 212.61c-2.4624-2.372-1.1335-3.6375 3.017-2.8732 5.6729 1.0446 24.826-5.5754 30.199-10.438 2.3635-2.1389 4.7707-3.4328 5.3493-2.8753 1.8086 1.7422-7.092 8.7264-16.725 13.124-8.9003 4.0632-19.289 5.5199-21.84 3.0624z" opacity=".88158"/>
  <path d="m370.82 388.39c11.79-3.9476 20.077-11.301 25.357-17.814 8.2575-10.185 8.8027-20.27 5.2528-31.272-9.5958-23.887-19.385-15.778-34.259-35.045-13.29 15.049-27.651 19.232-47.889 23.02-1.5933 2.7549 3.1152 0.55769-2.7192 4.9899-2.2159 0.73861-1.8398 15.084 0.57966 22.114 6.9958 20.326 17.272 30.687 34.077 34.359 10.894 2.3808 9.6661 2.4029 19.6-0.35186z"/>
  <path d="m414.44 423.24c3.8985-1.8459 7.3416-3.766 7.6512-4.267s-1.8579-2.269-4.8167-3.929c-7.1364-4.0036-7.1902-4.0474-20.29-16.512l-11.362-10.81-4.1176 1.6478c-2.2647 0.90626-5.9867 2.2035-8.2712 2.8827s-4.1536 1.8107-4.1536 2.5144 1.9157 4.2711 4.2572 7.9277c6.0892 9.5094 17.539 19.548 24.85 21.786 8.2881 2.5381 8.269 2.5395 16.253-1.2406z"/>
  <path d="m414.71 151.01c-1.8708-1.8708-0.71942-2.7039 4.7786-3.4575 3.1215-0.42785 9.8357-2.2314 14.92-4.0078 10.55-3.6861 10.077-3.5863 10.077-2.1255 0 0.60742-2.7318 2.0867-6.0707 3.2874s-8.0836 2.9733-10.544 3.9393c-6.0472 2.3744-12.07 3.4562-13.162 2.3642z" opacity=".88158"/>
  <path d="m414.81 144.74c-1.708-1.7471 0.40285-3.1445 4.7498-3.1445 5.3382 0 21.669-3.367 25.014-5.1573 1.396-0.7471 2.4718-0.81148 2.4718-0.14791 0 3.2145-29.734 11.009-32.236 8.4497z" opacity=".88158"/>
  <path d="m410.94 135.84c-1.933-1.0979-3.5146-2.553-3.5146-3.2334 0-1.6506 0.90639-1.5542 7.6682 0.81542 6.0514 2.1207 18.543 1.6131 23.329-0.94795 1.3014-0.69648 3.3425-1.0464 4.5358-0.77752 1.4726 0.33176 0.52717 1.217-2.9426 2.7554-7.1982 3.1915-24.45 4.0151-29.075 1.3881z" opacity=".88158"/>
  <path d="m375.05 219.98c-1.7051-1.7051-0.78492-2.6148 2.0892-2.0654 3.9283 0.75095 17.191-4.0079 20.912-7.5036 1.6366-1.5375 3.3035-2.4676 3.7042-2.067 1.2524 1.2524-4.911 6.273-11.582 9.4345-6.1631 2.9208-13.357 3.968-15.123 2.2014z" opacity=".88158"/>
  <path d="m367.33 212.61c-2.4624-2.372-1.1335-3.6375 3.017-2.8732 5.6729 1.0446 24.826-5.5754 30.199-10.438 2.3635-2.1389 4.7707-3.4328 5.3493-2.8753 1.8086 1.7422-7.092 8.7264-16.725 13.124-8.9003 4.0632-19.289 5.5199-21.84 3.0624z" opacity=".88158"/>
  <path d="m595.56 115.59 0.03125 8.1875c0.01077 13.348 0.51627 15.921 4.2812 21 3.6828 4.9679 4.3159 7.2131 2.0938 7.5312-0.99779 0.14286-2.4913-0.70449-4.8125-2.6875-1.8549-1.5847-3.732-2.875-4.1562-2.875-1.0486 0-12.454 11.221-13.562 13.344-0.48839 0.93507-0.87502 2.5946-0.875 3.6875 0 1.6142-0.85468 2.8946-4.5625 6.7188-5.4619 5.6333-13.18 11.57-26.188 20.25-5.3005 3.5368-10.716 7.4402-12.062 8.6562-5.6654 5.1184-4.8621 9.6334 4.4375 24.594l3.8438 6.1875-0.53125 4.7188c-1.413 12.916-0.51755 17.049 6.7188 31.469 5.5174 10.994 6.8797 18.411 5.5625 30.031-0.97398 8.5916-0.95795 10.583 0.0625 11.812 1.0375 1.2501 5.0339 1.2757 7.9375 0.0625 1.7988-0.75158 2.1875-1.2357 2.1875-2.7812 0-1.0318 0.41392-2.3202 0.9375-2.8438 1.3428-1.3428 6.138-1.9229 9.2812-1.125 3.21 0.81479 4.5771 0.12602 7.4688-3.8438 7.9099-10.859 14.577-29.206 23.781-65.438 4.3808-17.244 5.4345-20.376 7.6562-22.844 2.1112-2.3445 3.8251-9.0296 4.4375-17.281 0.32235-4.3427 0.90038-10.585 1.2812-13.875 1.1252-9.718 1.5691-8.5117-6.6875-18.781-1.7307-2.1526-2.0834-2.9602-1.5938-3.875 0.86399-1.6144 2.9461-1.0091 5.8438 1.75l2.3438 2.25v-10l-2.0312-1c-1.4499-0.71482-2.0312-1.449-2.0312-2.5312 0-1.3048 0.26688-1.5092 2.0938-1.5h2.125l-0.34375-3.8125c-0.41842-4.4804-1.7216-8.5808-4.3438-13.812-2.2557-4.5003-6.2663-11.14-6.5625-10.844-0.11553 0.11555 0.20464 2.6116 0.71875 5.5312 0.51835 2.9443 0.77359 6.5904 0.5625 8.1875-0.29956 2.2654-0.06867 3.5285 1.0938 5.9688 1.2303 2.5829 1.4954 4.1251 1.5 9.1562 0.00541 5.9905-0.77476 8.4918-2.4375 7.9375-0.36554-0.12183-1.0249-2.738-1.4688-5.8125-0.81079-5.6164-1.0154-6.1309-10.344-25.812-0.65648-1.3851-1.7552-3.228-2.4375-4.0938l-1.25-1.5625zm-73.781 2.8438c-8.778 0.09756-17.097 0.67813-21.5 1.7188-22.234 5.2542-47.018 19.392-53 30.344-7.9069 14.476-17.63 31.137-21.938 49.312-8.5994 21.215-11.473 29.317-19.812 49.594-5.667 10.142-19.263 26.015-23.875 31.156-7.006 7.8098-27.839 10.52-39.812 12.969-13.841 2.8309-25.516 7.8251-44.406 7.125-8.5786-2.5688-31.825-6.1251-44.469-5.7812-26.63 0.72427-51.687 15.335-67.75 31.25-16.763 16.608-9.1192 38.527-7.8125 67.5 0.64855 14.38 0.31981 21.115-1.4062 29.188-1.2349 5.7757-2.9487 17.489-3.7812 26.031s-2.0346 16.796-2.6875 18.344c-4.6259 10.968-7.9287 16.89-11.125 19.938-4.893 4.6656-17.684 13.402-25.25 17.25-4.9435 2.5138-6.8113 4.6566-10.062 11.531-2.2353 4.7265-4.407 12.286-4.9375 17.156-0.52169 4.7898-1.7863 11.639-2.8125 15.219-2.8155 9.8204-12.089 27.969-14.281 27.969-2.33 0-2.3925-0.72616-0.40625-4.4375 0.83663-1.5632 1.2353-3.1396 0.875-3.5-0.91214-0.91214-12.25 15.254-12.25 17.469 0 0.99183 1.3462 5.7499 2.9688 10.562 3.2887 9.7543 2.952 18.81-0.8125 21.562-1.7517 1.2809-1.8783 1.8415-0.46875 2.4062 1.0084 0.40403 5.2529 0.7827 9.4062 0.84375 8.3583 0.12295 8.0805 0.85891 3.8438-10.656-3.8152-10.37 0.28603-28.006 11.969-51.406 6.0552-12.129 8.7198-15.54 24.094-31.062 17.778-17.95 20.312-19.676 39.844-26.938 5.4576-2.0292 13.341-5.8941 17.531-8.5938s9.2266-4.91 11.188-4.9375c4.4453-0.06216 7.851-1.9776 16.375-9.125 14.588-12.232 37.313-39.027 40.969-48.312 4.9902-12.674 11.02-23.446 13.344-23.875 2.0687-0.38159 2.1597 0.15665 0.875 4.2188-0.81041 2.5625-2.3592 6.4594-3.4375 8.6562s-1.6049 4.5434-1.1875 5.2188 7.7762 3.5116 16.344 6.2812c26.505 8.5686 63.373 9.9966 89.844 3.5 1.6255-0.39894 3.0891-0.77187 4.4062-1.125 8.1856 0.26278 16.112-6.58 22.875-9.0625 5.2304-1.8478 8.8737-2.6487 15.75-5.5938 8.5178-3.3389 10.843-5.1052 14.156-7.5625l15.906-17.406c4.1404 3.3617 7.1926 5.5624 8.0312 5.5625 0.8846 7e-5 1.9869-1.0257 2.4688-2.2812 0.7089-1.8474 2.2166-1.0448 7.8438 4.2188 8.2768 7.742 10.394 7.9821 26.062 2.7812 14.013-4.651 19.719-8.2162 33.062-20.562 28.591-26.453 38.573-26.901 38.312-1.75-0.09923 9.5775-3.4436 21.812-5.9688 21.812-0.62841 0-1.5918 2.0785-2.125 4.5938s-2.6141 6.7631-4.625 9.4375c-2.4803 3.2988-3.9663 7.5069-4.625 13.094-1.2759 10.821-4.2678 14.24-11.438 13.094-2.9127-0.46576-5.3125-0.26042-5.3125 0.4375s2.8628 5.1463 6.3438 9.875 6.9745 8.5938 7.75 8.5938 1.4062-1.7768 1.4062-3.9375c0-3.6711 12.365-25.813 15.5-27.75 0.75514-0.46669 1.375-4.4823 1.375-8.9062 0-9.4796 5.7916-43.268 9.75-56.938 1.5258-5.2693 2.3691-10.66 1.9062-11.969-1.4177-4.0089-4.9266-7.3125-7.7812-7.3125-1.5491 0-2.4325-0.74584-2.0938-1.75 0.35452-1.051 3.0718-1.7482 6.7812-1.75 3.6401-0.00172 7.6474-1.0266 9.6875-2.4688 3.8308-2.7081 10.835-3.2014 14.125-1 1.8288 1.2237 1.7464 1.6825-0.59375 3.4688-2.6051 1.9885-2.6326 2.1419-0.1875 4.8438 2.0704 2.2878 2.3635 4.1875 1.5938 10.25-1.346 10.601-3.2138 15.832-10.156 28.125-4.464 7.9044-6.1562 12.409-6.1562 16.594 0 6.3694-2.8031 12.898-6.7812 15.719-1.4979 1.0622-2.9357 4.3027-3.375 7.625-0.42337 3.2014-2.6652 8.39-5.0312 11.656l-4.25 5.875 4.0938 4.5c2.2556 2.4695 4.0937 4.9611 4.0938 5.5625 0 6.6892 9.0702-12.673 10.625-22.688 0.53328-3.4349 3.9229-11.305 7.5938-17.594 6.5357-11.198 6.673-11.651 8.3438-29.656 1.7412-18.765 3.0794-25.71 8.6562-44.688 3.7895-12.895 2.8369-16.89-4.9062-20.125-8.3339-3.4821-12.709-2.61-23.688 4.8125-5.5846 3.7757-12.053 7.8307-14.375 9-4.6655 2.3497-28.382 10.875-30.25 10.875-0.64875 0-1.486-4.276-1.875-9.5s-1.3643-16.124-2.1562-24.25-1.4565-16.311-1.5-18.188l-3.5938-24.938c-0.00941-9.4965-0.59632-15.816-2.0625-22.625-5.2096-24.193-5.517-29.637-2.5625-43.031 1.2498-5.6659 2.4706-7.9988 7.9375-15 3.5598-4.5588 8.1083-9.7256 10.094-11.469 4.589-4.0292 15.222-9.4178 17.125-8.6875 2.136 0.81965 0.97199 2.0414-6.5 6.875-3.9522 2.5567-8.1997 6.3584-10.281 9.2188-3.6567 5.0249-7.1603 11.321-6.5938 11.812 0.17717 0.15377 7.9156-5.6088 17.219-12.812 12.094-9.3648 17.208-13.957 17.938-16.062 0.56147-1.62 5.4065-7.1906 10.75-12.375 6.8355-6.6321 9.6094-10.014 9.4062-11.406-0.72275-4.951-29.632-18.435-44.062-20.562-6.2539-0.92217-15.472-1.3163-24.25-1.2188zm-248.84 308.69-3.2188 7.3125c-1.822 4.1284-7.0631 11.294-12.062 16.5-4.8642 5.0653-9.9868 11.116-11.375 13.438-2.2985 3.8444-7.3855 8.5061-23.438 21.438-3.0961 2.4942-8.2746 5.2238-11.531 6.0938s-9.738 4.0731-14.375 7.0938-9.072 5.4687-9.875 5.4688c-1.7563 0-5.5666 20.957-5.25 28.875 0.24429 6.1096-6.9628 31.43-10.469 36.781-2.769 4.2261-5.2965 4.3305-4.0312 0.15625 2.4753-8.1663 2.1398-8.2969-2.875-1.0625-5.8707 8.469-6.5456 13.225-3.3438 23.281 2.194 6.8904 0.88938 13.32-2.9062 14.312-1.5126 0.39556-2.75 1.285-2.75 1.9688s4.168 1.25 9.2812 1.25c8.375 0 9.1791-0.25045 8.0938-2.4688-2.8048-5.7329-1.2619-21.966 3.5938-37.656 6.7029-21.659 11.212-30.966 19.969-41.312 8.9757-10.604 16.561-15.708 39.688-26.688 14.206-6.7447 19.153-9.9813 28.531-18.625 6.2436-5.7548 15.829-14.39 21.281-19.188 9.5144-8.371 19.317-20.827 18.031-22.906-0.33777-0.54651-4.6612-2.0711-9.5938-3.4062s-11.744-4.2722-15.156-6.5312l-6.2188-4.125z" fill="#fff" stroke-width="2.8143"/>
  <g transform="translate(-5.6285 -14.775)" fill-opacity=".96407" fill-rule="evenodd">
   <path d="m199.5 328.12c-25.305-6.3994-44.504 0.93958-59.202 18.407-11.891 22.027-6.9915 39.475-4.975 57.709 9.6722 29.877-5.4414 47.36-18.905 65.669l-0.49749 3.98c9.3044-21.281 32.691-24.339 21.89-71.639-0.98815-15.298-8.2736-18.761 2.985-48.755 9.2944-15.052 27.908-30.501 59.424-22.449 3.3981-2.1766-0.07689 0.31093-0.71923-2.9228z"/>
   <path d="m159.2 339.56c-20.903 13.062-20.71 32.292-18.91 49.828 8.2769 27.417 5.4826 51.435-11.446 71.114l-12.441 18.867c4.2359-2.8393 8.7712-6.5518 16.92-20.802 12.077-17.415 20.028-37.059 8.4599-67.244 0.30711-19.758 0.99184-39.388 17.799-48.245 11.696-6.3924 9.7982-6.1788-0.38183-3.5187z" stroke-width=".98626"/>
   <path d="m188.09 337.27c-5.4505 0.24334-15.28 0.15728-20.359 6.5851-8.0635 9.6796-13.048 11.659-15.256 27.101-2.4598 26.92 8.8864 39.461 2.5953 71.259-5.1756 16.735-13.747 26.945-19.986 28.988 7.2294-7.1254 13.687-17.591 16.849-30.341 6.3823-25.011-6.1838-48.14-1.555-73.809 1.1074-13.927 6.3186-17.679 17.614-28.791 6.6417-4.7396 14.911-3.9889 20.098-0.99054z" stroke-width=".82191"/>
   <path d="m181.28 343.43c-16.952 11.065-16.795 27.355-15.336 42.211 6.7123 23.225 4.4462 43.572-9.2822 60.243l-10.089 15.983c3.4352-2.4052 7.1132-5.5502 13.721-17.622 9.7941-14.753 16.242-31.393 6.8607-56.964 0.24906-16.737 0.80435-33.367 14.435-40.869 9.4852-5.4152 7.946-5.2342-0.30965-2.9807z" stroke-width=".81746"/>
  </g>
  <path d="m538.92 292.86c-2.0188-2.0189-2.8053-6.0736-2.0132-10.379 0.72392-3.9349 3.0036-9.01 5.3935-12.007l1.4258-1.788 2.006 5.5438c3.1146 8.6076 3.2447 15.973 0.33354 18.884-1.4051 1.4051-5.6372 1.2551-7.1455-0.25326l-1e-5 1e-5z" fill="#fff" stroke-width="1.8888"/>
  <path d="m390.08 177.72c-1.3746-1.9812-0.30731-2.7127 2.4232-1.6609 3.7321 1.4377 17.63-0.88626 21.913-3.6643 1.884-1.2219 3.6898-1.8407 4.0128-1.3751 1.0096 1.4552-5.9484 5.2995-13.075 7.224-6.5844 1.778-13.85 1.5289-15.274-0.52371z" opacity=".88158"/>
  <path d="m383.8 169.1c-2.0012-2.7721-0.46845-3.7811 3.48-2.2907 5.3966 2.037 25.421-1.0708 31.574-4.9003 2.7062-1.6844 5.3052-2.5295 5.7755-1.878 1.4699 2.0361-8.5311 7.3258-18.793 9.9401-9.4811 2.4153-19.963 2.001-22.036-0.87114z" opacity=".88158"/>
  <path d="m389.87 200.21c-2.0082-1.3915-0.20073-3.1639 4.0673-3.9881 5.2414-1.0122 20.637-7.4148 23.582-9.807 1.229-0.99825 2.273-1.2655 2.3989-0.61393 0.60955 3.1562-27.107 16.447-30.049 14.409z" opacity=".88158"/>
  <path d="m384.39 192.21c-2.1062-0.71146-3.935-1.8402-4.064-2.5083-0.31299-1.6206 0.59523-1.6979 7.6837-0.65345 6.3438 0.9347 18.513-1.9324 22.726-5.3544 1.1457-0.93061 3.0834-1.6612 4.306-1.6235 1.5087 0.04651 0.74837 1.0949-2.3667 3.2634-6.4625 4.4985-23.245 8.5786-28.285 6.8763z" opacity=".88158"/>
  <path d="m388.75 257.24c-2.3938-0.48896-1.4296-2.8296 2.1697-5.267 4.4201-2.9932 16.054-14.938 17.82-18.296 0.73697-1.4013 1.5916-2.0578 1.9637-1.5084 1.8024 2.6616-18.448 25.787-21.954 25.071z" opacity=".88158"/>
  <path d="m380.56 252.04c-2.2162 0.17476-4.3416-0.14323-4.7232-0.70667-0.9255-1.3667-0.12095-1.7951 6.8066-3.6245 6.1998-1.6372 16.259-9.0618 18.785-13.865 0.68704-1.3064 2.1809-2.7405 3.3197-3.187 1.4053-0.55097 1.1189 0.71208-0.89154 3.9314-4.1708 6.6787-17.994 17.034-23.297 17.452z" opacity=".88158"/>
 </g>
 <g transform="translate(-80.18 -99.094)" stroke="#000">
  <path d="m257.89 378.21c0-0.77473 2.31-4.4396 5.1332-8.1442 4.821-6.3261 8.9252-16.323 8.9252-21.741 0-1.3197-0.57512-2.0441-1.278-1.6097s-1.278 2.4474-1.278 4.4732-0.58483 4.0447-1.2996 4.4865c-0.85668 0.52947-1.0202-1.5741-0.47986-6.1718 0.69308-5.897 0.30137-8.1074-2.5345-14.302-1.8448-4.0297-3.3543-7.5595-3.3543-7.8441s1.6989 0.36112 3.7753 1.4349c3.8965 2.015 6.9254 7.2146 8.3596 14.35 1.231 6.1247-2.6297 19.189-7.9561 26.922-5.1931 7.5402-8.0129 10.406-8.0129 8.1448z" fill-opacity=".99401"/>
  <path d="m196.78 416.01c-4.3644-5.2588-6.5646-13.349-6.5919-24.24-0.01544-6.1506 0.48016-11.183 1.1013-11.183s1.3596 5.6074 1.641 12.461c0.41769 10.173 1.0735 13.456 3.5711 17.878 2.9649 5.25 3.145 8.5377 0.27845 5.0838z" fill-opacity=".99401"/>
  <path d="m186.64 449.96c-2.1951-0.78741-2.017-2.9161 0.24408-2.9161 2.1169 0 3.7924 2.1074 2.3328 2.9343-0.53866 0.30517-1.6983 0.29698-2.5769-0.0182z" fill-opacity=".99401"/>
  <path d="m201.35 470.08c-3.2208-2.5335-5.5355-7.6991-3.4499-7.6991 0.61237 0 1.6642 1.0292 2.3375 2.2872s2.7064 3.0805 4.5181 4.0501 3.2941 2.2409 3.2941 2.825c0 1.8772-3.3961 1.1355-6.6998-1.4632z" fill-opacity=".99401"/>
  <path d="m234.89 450.88c0-0.70293 0.43134-1.2099 0.95853-1.1267 3.5604 0.56217 7.0503-0.60298 10.5-3.5055 2.1924-1.8448 4.3029-3.0374 4.6901-2.6502s-1.7363 2.4716-4.7189 4.6322c-5.2646 3.8137-11.43 5.2431-11.43 2.6502z" fill-opacity=".99401"/>
  <path d="m188.13 518.15c-1.0418-2.7148 0.50095-11.037 2.046-11.037 1.2416 0 0.80566 11.104-0.48666 12.396-0.4124 0.4124-1.1141-0.19952-1.5594-1.3598z" fill-opacity=".99401"/>
  <path d="m468.29 381.32c-2.724-1.0028-5.5996-2.5134-6.3902-3.357-1.4691-1.5675-0.02433-1.4443 8.1478 0.69441 1.7573 0.4599 0.75084-0.32821-2.2366-1.7514s-5.4317-3.1908-5.4317-3.9281c0-1.8387 0.47654-1.7272 5.6396 1.3191 4.9866 2.9422 17.841 3.656 22.352 1.2414 3.1065-1.6626 3.9591-1.6898 3.9591-0.12665 0 1.6637-10.857 6.3418-16.496 7.1078-2.5254 0.34304-6.8204-0.19673-9.5444-1.1995z" fill-opacity=".99401"/>
  <path d="m498.16 362.63c0-2.1922 8.375-5.0372 18.671-6.3426 10.634-1.3483 16.715-3.7068 31.411-12.183 9.6738-5.5798 16.388-7.0784 22.023-4.9157 4.3505 1.6694 1.6878 3.2282-4.9863 2.9191-6.0414-0.27984-7.76 0.21043-12.461 3.5547-9.529 6.7791-25.603 13.218-35.871 14.37-5.1625 0.57896-10.601 1.7027-12.086 2.4972-3.3885 1.8135-6.7013 1.8635-6.7013 0.10127z" fill-opacity=".99401"/>
  <path d="m509.67 355.62c0-0.37403 0.86268-2.7448 1.9171-5.2682s1.8983-6.0995 1.8753-7.9467c-0.03025-2.436-0.68679-1.4908-2.39 3.4407-2.3674 6.8545-5.2365 11.287-5.2365 8.0904 0-0.87841 0.80702-3.1577 1.7934-5.0651s2.1935-6.1364 2.6826-9.3979c0.7502-5.0027 0.38559-6.7986-2.3318-11.486-3.4947-6.0277-5.1737-13.419-3.3098-14.571 0.64109-0.39621 1.1656 0.08824 1.1656 1.0765s1.1462 3.1186 2.5472 4.7339c2.865 3.3033 5.0935 10.243 5.1335 15.986 0.02051 2.9467 0.31344 3.3904 1.2656 1.9171 2.3827-3.687 1.3157 8.1006-1.2436 13.739-2.1584 4.7551-3.8685 6.8556-3.8685 4.7516z" fill-opacity=".99401"/>
  <path d="m496.88 321.88c0-0.65717 0.57868-2.7169 1.286-4.5772 1.8144-4.7722-0.71304-19.653-3.9172-23.064-2.9277-3.1164-3.1371-4.3931-0.72031-4.3931 2.44 0 5.0003 3.3494 6.7322 8.8073 0.89969 2.8352 1.5121 3.6274 1.5897 2.0561 0.06937-1.4058-0.69385-4.1279-1.696-6.049-2.3679-4.539-0.203-5.8887 2.5952-1.618 2.5414 3.8786 1.9709 12.758-1.4984 23.323-1.9319 5.8833-4.3711 8.9607-4.3711 5.5149z" fill-opacity=".99401"/>
  <path d="m434.58 355.38c-1.8027-0.64665-2.2053-4.1942-0.476-4.1942 1.6743 0 4.2731 3.5165 3.0941 4.1869-0.56133 0.31917-1.7395 0.32245-2.6181 0.00727z" fill-opacity=".99401"/>
  <path d="m561.43 351.19c-1.3814-2.2351 0.66707-4.1238 2.6699-2.4616 0.99179 0.82312 1.8033 2.0013 1.8033 2.6181 0 1.5408-3.4998 1.4183-4.4731-0.15648z" fill-opacity=".99401"/>
  <path d="m525 347.15c0-1.0086 0.68169-2.5155 1.5149-3.3487s1.566-4.6525 1.6285-8.4873 0.4763-7.3351 0.9196-7.7784c1.384-1.384 2.5757 6.8373 1.6232 11.199-0.9931 4.5473-5.6862 11.493-5.6862 8.4157z" fill-opacity=".99401"/>
  <path d="m427.11 338.8c-6.7608-7.295-12.414-18.386-12.833-25.175-0.38711-6.2745-0.35208-6.3528 0.91644-2.0507 2.6082 8.8456 9.172 20.448 14.073 24.876 2.7472 2.4819 4.9949 4.8016 4.9949 5.1549 0 1.9027-4.3803 0.18471-7.1507-2.8046z" fill-opacity=".99401"/>
  <path d="m426.29 329.79c-2.5305-2.8555-5.9667-13.052-6.96-20.652-1.0774-8.244 0.11932-6.2926 3.2962 5.3749 1.4934 5.4846 3.6493 11.397 4.7909 13.14 2.4847 3.7921 1.6842 5.3099-1.1272 2.1374z" fill-opacity=".99401"/>
  <path d="m578.12 434c-2.9848-4.2614-0.05463-6.4728 3.0798-2.3244 2.3195 3.0699 2.3308 5.1479 0.028 5.1479-0.62158 0-2.0201-1.2706-3.1078-2.8235z" fill-opacity=".99401"/>
  <path d="m555.73552,430.54261c-.83858-1.56692-.8869-2.79782-.12825-3.2667 .66956-.4138 1.82291.37907 2.563,1.76194 .83859,1.56691.88691,2.79782.12825,3.26669-.66955.41381-1.82291-.37906-2.563-1.76193z" fill-opacity=".99401"/>
  <path d="m492.66 393.83c-1.7159-1.7159 0.60532-2.8214 4.5724-2.1776 4.6489 0.75441 17.561-5.2684 26.539-12.379 3.0964-2.4524 5.0653-3.3451 5.0653-2.2967 0 2.0173-13.479 11.348-21.727 15.04-5.6425 2.5258-12.835 3.4283-14.45 1.8132z" fill-opacity=".99401"/>
  <path d="m573.57 360.14c0-0.70292 0.86268-1.278 1.9171-1.278s1.9171 0.57512 1.9171 1.278-0.86267 1.278-1.9171 1.278-1.9171-0.57511-1.9171-1.278z" fill-opacity=".99401"/>
  <path d="m577.4 336.1c0-0.68629 0.91074-1.5973 2.0239-2.0244 1.2447-0.47764 1.829-0.19201 1.5177 0.74192-0.63682 1.9105-3.5415 2.9624-3.5415 1.2825z" fill-opacity=".99401"/>
  <path d="m589.22 324.03c0.29289-0.87865 1.2035-1.54 2.0236-1.4697s2.9628 0.21407 4.7616 0.31951c4.9115 0.28789 2.3929 2.7478-2.8134 2.7478-3.0354 0-4.3306-0.52097-3.9717-1.5976z" fill-opacity=".99401"/>
  <path d="m508.33 247.61c-0.03328-0.31631-0.29764-3.4507-0.58746-6.9653s-1.4786-13.183-2.6417-21.485c-1.5144-10.809-1.858-18.519-1.2104-27.157 1.1868-15.83 3.4125-17.224 2.5417-1.5915-0.73582 13.209 0.94132 12.199 3.1983-1.9264 1.6751-10.483 4.9549-21.328 6.4504-21.328 0.74279 0 0.73415 1.0973-0.02262 2.8756-0.67305 1.5816-3.0378 11.79-5.255 22.685l-4.0313 19.81 2.2884 16.35c1.733 12.382 1.9295 16.709 0.8093 17.829-0.81353 0.81352-1.5064 1.2203-1.5396 0.90402z" fill-opacity=".99401" opacity=".88158"/>
  <path d="m434.26 191.93c0-0.60693 10.308-16.908 12.366-19.556 0.22767-0.29287 0.77084-0.17561 1.207 0.26058s-0.89807 2.9763-2.9651 5.6447-5.0588 7.0083-6.6485 9.6442c-2.7371 4.5386-3.9599 5.7756-3.9599 4.006z" fill-opacity=".99401"/>
  <path d="m448.32 170.52c0-0.25621 1.7162-2.4129 3.8137-4.7926s3.8047-3.7517 3.7937-3.0488c-0.02177 1.3926-5.771 8.3073-6.9071 8.3073-0.38519 0-0.70033-0.20962-0.70033-0.46583z" fill-opacity=".99401"/>
  <path d="m463.71 154.14c6.7038-6.4312 19.849-14.796 21.173-13.472 0.33576 0.33576-1.9919 2.1356-5.1725 3.9995s-9.6767 6.2878-14.436 9.8307l-8.6527 6.4416 7.0881-6.7998z" fill-opacity=".99401"/>
  <path d="m521.34 178.02c-0.02717-1.4058 1.6217-5.7192 3.6641-9.5853s3.7124-6.1666 3.7109-5.1122c-0.00413 3.0043-7.3193 17.582-7.375 14.697z" fill-opacity=".99401"/>
  <path d="m531.14 162.08c3.3217-7.3558 5.3608-9.6207 5.3608-5.9544 0 2.4006-6.3443 13.58-7.7066 13.58-0.60382 0 0.4518-3.4317 2.3458-7.626z" fill-opacity=".99401"/>
  <path d="m496.88 143.57c0-0.87904 15.433-11.609 20.129-13.995 2.2845-1.1607 4.1536-1.627 4.1536-1.0362s-1.8691 2.0398-4.1536 3.22c-5.933 3.0652-8.6906 4.8827-13.46 8.8714-3.8063 3.1834-6.6694 4.4456-6.6694 2.9402z" fill-opacity=".99401"/>
  <path d="m513.5 137.89c0-2.7224 18.781-12.693 24.219-12.858 2.9893-0.09048-0.08649 2.035-5.4048 3.735-2.6563 0.84906-7.7464 3.5066-11.311 5.9056-7.0281 4.7296-7.5028 4.9331-7.5028 3.217z" fill-opacity=".99401"/>
  <path d="m527.56 135.16c0-1.2468 5.122-4.162 9.9048-5.6374 5.5484-1.7116 2.8086 1.5283-3.5146 4.1561-3.5146 1.4606-6.3902 2.1272-6.3902 1.4813z" fill-opacity=".99401"/>
  <path d="m629.8 210.65c0-1.5178 0.64833-2.2672 1.6342-1.8889 0.89884 0.34491 2.768-0.22997 4.1536-1.2775s1.8322-1.9229 0.99219-1.9453c-0.99531-0.02648-0.41617-2.5529 1.6628-7.2539 5.6388-12.75 5.7113-31.696 0.14294-37.335-8.0512-8.1536-12.965-11.686-16.258-11.686-4.3172 0-7.7657-3.3849-4.6619-4.576 2.8818-1.1058 15.96 5.641 21.255 10.965 2.4744 2.4881 5.5811 7.5818 6.9037 11.319 2.5967 7.3381 2.6197 7.1502-2.9979 24.467-4.1816 12.89-4.2052 14.041-0.11823 5.7512 2.0794-4.2175 3.8091-9.2498 3.8437-11.183s0.649-3.5146 1.3653-3.5146c0.74706 0 0.98878 1.4986 0.56691 3.5146-2.4232 11.579-3.9133 14.953-9.202 20.836-5.983 6.6545-9.2819 8.0075-9.2819 3.8067z"/>
  <path d="m637.7 181.28c-0.03829-2.7746-0.68277-6.1904-1.4322-7.5907-1.5531-2.902 0.2167-4.7941 2.2145-2.3675 2.0793 2.5256 2.4241 15.003 0.41465 15.003-0.62005 0-1.1587-2.2702-1.197-5.0448z"/>
  <path d="m609.15 167.81c-2.5737-0.9465-7.8935-2.1225-11.822-2.6133-7.0364-0.87915-10.009-3.154-4.1218-3.154 8.1893 0 23.818 4.2948 23.818 6.5452 0 1.5096-2.2616 1.2862-7.8745-0.778z"/>
  <path d="m585.59 203.57c-1.1522-1.7586-1.7946-4.346-1.4275-5.7499s0.1715-2.8591-0.43474-3.2338c-3.7418-2.3125 6.4146-8.6755 12.839-8.0437 2.3215 0.22832 4.8337 1.394 5.5826 2.5904 2.009 3.2093-0.04995 4.3476-3.0132 1.6659-2.8363-2.5668-3.2777-1.8119-1.2051 2.061 0.74737 1.3965 1.1498 3.5154 0.89425 4.7086-0.34905 1.63-0.99317 1.175-2.5896-1.8292-2.5045-4.7128-5.2989-6.0804-8.7023-4.259-2.8807 1.5417-3.2647 3.7846-0.64799 3.7846 0.99853 0 2.1945 1.7254 2.6576 3.8341s1.3716 3.8341 2.0186 3.8341 1.1765 0.86268 1.1765 1.9171c0 3.0792-4.8624 2.2083-7.1482-1.2803z"/>
  <path d="m566.69 299.04c-1.7106-2.7678 1.8667-11.342 6.3692-15.266 2.6214-2.2845 5.2454-4.1536 5.8312-4.1536 1.3813 0 1.375 2.9728-0.00959 4.537-0.59108 0.66777-0.31781 3.5146 0.60727 6.3263 1.4959 4.5466 1.6553 4.688 1.4414 1.278-0.13232-2.1088 0.16953-3.9779 0.67078-4.1536 2.4768-0.86833 3.4674-0.03017 3.4674 2.9337 0 3.6118-6.4924 11.138-7.3608 8.5324-0.28623-0.85868-1.3975-1.5612-2.4695-1.5612-1.4278 0-1.7399-0.8336-1.1668-3.1168 0.43025-1.7142 0.16677-3.4972-0.5855-3.9621-2.1351-1.3196-3.0184 0.38779-2.6939 5.207 0.21429 3.182-0.23128 4.428-1.5835 4.428-1.0349 0-2.1679-0.46309-2.5177-1.0291z"/>
  <path d="m559.51 268.76c-1.6509-1.7573-2.4542-3.1951-1.7852-3.1951 1.8314 0 6.8974 3.808 6.8974 5.1846 0 2.0959-2.0084 1.3143-5.1122-1.9895z"/>
  <path d="m596.02 255.85c1.7175-7.3885 3.113-10.259 3.113-6.4028 0 3.6495-2.7904 13.559-3.8181 13.559-0.52719 0-0.20991-3.2204 0.70506-7.1566z"/>
  <path d="m564.13 237.82c1.4883-1.258 4.5878-5.8817 6.8878-10.275s4.6768-7.9878 5.2818-7.9878c1.7718 0 1.2851 1.4164-3.7331 10.863-3.7305 7.0228-5.4392 9.0259-7.9474 9.3164l-3.1951 0.37013 2.706-2.2872z"/>
  <path d="m606.8 207.15c0-0.73938 0.90059-2.0918 2.0013-3.0053 3.0722-2.5497 6.0503-9.0726 5.9385-13.007-0.05533-1.9458 0.43607-3.5378 1.092-3.5378 1.7684 0 1.4454 5.4745-0.6129 10.388-1.8541 4.4258-8.4189 11.57-8.4189 9.1621z"/>
  <path d="m560.01 292.94c0.42668-1.1119 0.77576-3.2398 0.77576-4.7288 0-1.6792 0.44795-2.2461 1.1797-1.493 1.4631 1.5057 0.26528 8.2434-1.4654 8.2434-0.69618 0-0.91669-0.90971-0.49003-2.0216z"/>
  <path d="m563.34 286.12c0-0.64433 0.48755-1.3632 1.0834-1.5976 3.3902-1.333 17.029-18.977 19.493-25.218 3.3188-8.4052 5.7395-11.603 4.4511-5.881-1.7268 7.6696-7.6015 17.659-15.099 25.673-7.2774 7.7796-9.9287 9.655-9.9287 7.0231z"/>
  <path d="m585.59 203.57c-1.1522-1.7586-1.7946-4.346-1.4275-5.7499s0.1715-2.8591-0.43474-3.2338c-3.7418-2.3125 6.4146-8.6755 12.839-8.0437 2.3215 0.22832 4.8337 1.394 5.5826 2.5904 2.009 3.2093-0.04995 4.3476-3.0132 1.6659-2.8363-2.5668-3.2777-1.8119-1.2051 2.061 0.74737 1.3965 1.1498 3.5154 0.89425 4.7086-0.34905 1.63-0.99317 1.175-2.5896-1.8292-2.5045-4.7128-5.2989-6.0804-8.7023-4.259-2.8807 1.5417-3.2647 3.7846-0.64799 3.7846 0.99853 0 2.1945 1.7254 2.6576 3.8341s1.3716 3.8341 2.0186 3.8341 1.1765 0.86268 1.1765 1.9171c0 3.0792-4.8624 2.2083-7.1482-1.2803z" opacity=".88158"/>
  <path d="m564.13 237.82c1.4883-1.258 4.5878-5.8817 6.8878-10.275s4.6768-7.9878 5.2818-7.9878c1.7718 0 1.2851 1.4164-3.7331 10.863-3.7305 7.0228-5.4392 9.0259-7.9474 9.3164l-3.1951 0.37013 2.706-2.2872z" opacity=".88158"/>
  <path d="m565.9 275.86c0-0.74441 0.57512-1.3535 1.278-1.3535s1.278 0.25361 1.278 0.56359-0.57512 0.91904-1.278 1.3535-1.278 0.18081-1.278-0.56359z" opacity=".88158"/>
  <path d="m566.69 299.04c-1.7106-2.7678 1.8667-11.342 6.3692-15.266 2.6214-2.2845 5.2454-4.1536 5.8312-4.1536 1.3813 0 1.375 2.9728-0.00959 4.537-0.59108 0.66777-0.31781 3.5146 0.60727 6.3263 1.4959 4.5466 1.6553 4.688 1.4414 1.278-0.13232-2.1088 0.16953-3.9779 0.67078-4.1536 2.4768-0.86833 3.4674-0.03017 3.4674 2.9337 0 3.6118-6.4924 11.138-7.3608 8.5324-0.28623-0.85868-1.3975-1.5612-2.4695-1.5612-1.4278 0-1.7399-0.8336-1.1668-3.1168 0.43025-1.7142 0.16677-3.4972-0.5855-3.9621-2.1351-1.3196-3.0184 0.38779-2.6939 5.207 0.21429 3.182-0.23128 4.428-1.5835 4.428-1.0349 0-2.1679-0.46309-2.5177-1.0291z" opacity=".88158"/>
  <path d="m563.34 286.12c0-0.64433 0.48755-1.3632 1.0834-1.5976 3.3902-1.333 17.029-18.977 19.493-25.218 3.3188-8.4052 5.7395-11.603 4.4511-5.881-1.7268 7.6696-7.6015 17.659-15.099 25.673-7.2774 7.7796-9.9287 9.655-9.9287 7.0231z" opacity=".88158"/>
  <path d="m559.51 268.76c-1.6509-1.7573-2.4542-3.1951-1.7852-3.1951 1.8314 0 6.8974 3.808 6.8974 5.1846 0 2.0959-2.0084 1.3143-5.1122-1.9895z" opacity=".88158"/>
  <path d="m560.01 292.94c0.42668-1.1119 0.77576-3.2398 0.77576-4.7288 0-1.6792 0.44795-2.2461 1.1797-1.493 1.4631 1.5057 0.26528 8.2434-1.4654 8.2434-0.69618 0-0.91669-0.90971-0.49003-2.0216z" opacity=".88158"/>
  <path d="m565.9 275.86c0-0.74441 0.57512-1.3535 1.278-1.3535s1.278 0.25361 1.278 0.56359-0.57512 0.91904-1.278 1.3535-1.278 0.18081-1.278-0.56359z" opacity=".88158"/>
  <path d="m596.02 255.85c1.7175-7.3885 3.113-10.259 3.113-6.4028 0 3.6495-2.7904 13.559-3.8181 13.559-0.52719 0-0.20991-3.2204 0.70506-7.1566z" opacity=".88158"/>
  <path d="m606.8 207.15c0-0.73938 0.90059-2.0918 2.0013-3.0053 3.0722-2.5497 6.0503-9.0726 5.9385-13.007-0.05533-1.9458 0.43607-3.5378 1.092-3.5378 1.7684 0 1.4454 5.4745-0.6129 10.388-1.8541 4.4258-8.4189 11.57-8.4189 9.1621z" opacity=".88158"/>
 </g>
 <path d="m518.06 94.955c-4.0345-2.1697-7.8711-1.5612-9.2214 1.3291-1.0008 2.406 1.382 7.6164 3.0026 9.3671 6.3502-0.73726 6.3332-5.1096 6.2187-10.696z" fill-rule="evenodd" stroke="#000"/>
</svg>
